<svg xmlns="http://www.w3.org/2000/svg" xml:space="preserve"
    style="fill-rule:evenodd;clip-rule:evenodd;stroke-linejoin:round;stroke-miterlimit:2" viewBox="0 0 512 512">
    <path
        d="M130.221 388.015h92.947q41.914 0 65.815-19.91t23.9-56.397q0-20.214-7.377-34.002-7.374-13.786-20.994-22.057-13.617-8.274-32.572-11.918a174 174 0 0 0-3.19-.583v-.765q17.804-4.123 29.915-12.548 23.718-16.5 23.718-51.861 0-35.877-23.877-53.918-23.874-18.04-65.736-18.041H10.098v25.652h46.814v230.696H-72.613v-68.432h-28.104v94.084h230.938m-17.344-256.348v230.696h-27.99V131.667zm99.131 230.696h-71.024V257.626h68.774q17.27 0 30.856 3.343 13.588 3.343 22.942 9.932 9.355 6.585 14.303 16.292 4.951 9.703 4.951 22.304 0 26.06-19.169 39.462-19.166 13.404-51.633 13.404m-71.024-230.696h66.393q29.654 0 47.293 12.088 17.64 12.086 17.64 37.289 0 14.834-6.513 26.52-6.51 11.686-20.229 18.48-13.72 6.791-35.435 6.791h-69.149z"
        style="fill:#2a9d8f" transform="matrix(-1 0 0 1 362.101 8.985)" />
</svg>
